<svg xmlns="http://www.w3.org/2000/svg" width="81" height="81" viewBox="0 0 81 81">
  <g id="Group_3" data-name="Group 3" transform="translate(-1202 -923)">
    <circle id="Ellipse_1" data-name="Ellipse 1" cx="40.5" cy="40.5" r="40.5" transform="translate(1202 923)" fill="#4b2b89"/>
    <path id="facebook" d="M14.686,54.845a.7.7,0,0,0,.7.7h9.972a.7.7,0,0,0,.7-.7V27.553h7.229a.7.7,0,0,0,.7-.642l.694-8.221a.7.7,0,0,0-.7-.759H26.057V12.1a2.476,2.476,0,0,1,2.475-2.477H34.1a.7.7,0,0,0,.7-.7V.7a.7.7,0,0,0-.7-.7H24.691a10,10,0,0,0-10,10v7.929H9.7a.7.7,0,0,0-.7.7v8.224a.7.7,0,0,0,.7.7h4.987Z" transform="translate(1221 936)" fill="#c81265" fill-rule="evenodd"/>
  </g>
</svg>
