<svg xmlns="http://www.w3.org/2000/svg" xmlns:xlink="http://www.w3.org/1999/xlink" width="348" height="361.724" viewBox="0 0 348 361.724">
  <defs>
    <linearGradient id="linear-gradient" x1="1.185" y1="0.728" x2="-0.185" y2="0.272" gradientUnits="objectBoundingBox">
      <stop offset="0" stop-color="#fff" stop-opacity="0.4"/>
      <stop offset="0.89" stop-color="#fff" stop-opacity="0"/>
    </linearGradient>
  </defs>
  <g id="Слой_2" data-name="Слой 2" transform="translate(0 -45.002)">
    <g id="Слой_1" data-name="Слой 1" transform="translate(0 45.002)">
      <g id="monitor" transform="translate(120.491)">
        <path id="Path_397" data-name="Path 397" d="M272.494,367.029,229.07,341.957c-3.133-1.805-2.738-4.968.88-7.049l28.131-16.247,54.785,31.585-28.131,16.247C281.125,368.611,275.657,368.835,272.494,367.029Z" transform="translate(-178.142 -80.948)" fill="#d6d8e5" opacity="0.4"/>
        <path id="Path_398" data-name="Path 398" d="M276.784,364.529,233.36,339.457c-3.133-1.805-2.738-4.968.88-7.05l28.153-16.247,54.755,31.615-28.131,16.247C285.385,366.111,279.917,366.335,276.784,364.529Z" transform="translate(-179.232 -80.313)" fill="#b1b4c4"/>
        <path id="Path_399" data-name="Path 399" d="M345.519,357.984V356.32l-2.529,1.462Z" transform="translate(-207.617 -90.514)" fill="#b1b4c4"/>
        <path id="Path_400" data-name="Path 400" d="M231.25,342.808V341.13l2.6,1.074Z" transform="translate(-179.233 -86.655)" fill="#b1b4c4"/>
        <path id="Path_401" data-name="Path 401" d="M276.784,362.3,233.36,337.237c-3.133-1.813-2.738-4.968.88-7.057l28.153-16.24,54.755,31.615-28.131,16.24C285.385,363.883,279.917,364.115,276.784,362.3Z" transform="translate(-179.232 -79.749)" fill="#d6d8e5"/>
        <path id="Path_402" data-name="Path 402" d="M270.861,306.384,264.08,283.9l55.359,31.749,6.035,22.275Z" transform="translate(-187.572 -72.118)" fill="#9ea1af"/>
        <path id="Path_403" data-name="Path 403" d="M343.956,356.6l1.6-.925-2.38-1.9Z" transform="translate(-207.665 -89.866)" fill="#9ea1af"/>
        <path id="Path_404" data-name="Path 404" d="M268.513,307.514,261.74,285.03,317.1,316.786l6.169,22.35Z" transform="translate(-186.978 -72.405)" fill="#b1b4c4"/>
        <path id="Path_405" data-name="Path 405" d="M384.391,304.629,170.146,180.916c-2.984-1.731-5.446-6.393-5.446-10.4V4.767c0-4.006,2.439-5.848,5.446-4.11L384.391,124.371c2.984,1.731,5.446,6.386,5.446,10.391V300.519C389.837,304.525,387.4,306.367,384.391,304.629Z" transform="translate(-162.328 -0.002)" fill="#c4c7d6"/>
        <path id="Path_406" data-name="Path 406" d="M460.68,407.787l2.372-1.365-1.022-7.042Z" transform="translate(-237.512 -101.452)" fill="#c4c7d6"/>
        <path id="Path_407" data-name="Path 407" d="M164.15,1.783,166.485.44l3.357,1.91s-3.573.545-3.663.53S164.15,1.783,164.15,1.783Z" transform="translate(-162.188 -0.114)" fill="#b1b4c4"/>
        <path id="Path_408" data-name="Path 408" d="M381.751,306.149,167.468,182.406c-2.984-1.731-5.438-6.386-5.438-10.4V6.287c0-4.006,2.439-5.848,5.438-4.11L381.751,125.891c2.984,1.731,5.438,6.386,5.438,10.4V302.039C387.189,306.045,384.757,307.887,381.751,306.149Z" transform="translate(-161.65 -0.389)" fill="#e4e7f2"/>
        <path id="Path_409" data-name="Path 409" d="M381.241,306.439,166.966,182.726c-2.984-1.738-5.446-6.393-5.446-10.4V6.577c0-4.006,2.439-5.848,5.446-4.11L381.241,126.181c2.984,1.731,5.446,6.386,5.446,10.392V302.329C386.687,306.312,384.247,308.177,381.241,306.439Z" transform="translate(-161.52 -0.462)" fill="#d6d8e5"/>
        <path id="Path_410" data-name="Path 410" d="M384.667,297.578,165.17,170.851l.112-162.393c0-1.664,1.171-2.335,2.611-1.492l214.275,123.7a5.781,5.781,0,0,1,2.611,4.521Z" transform="translate(-162.447 -1.679)" fill="#fff"/>
        <path id="Path_411" data-name="Path 411" d="M199.532,66.344,179.614,54.826a2.73,2.73,0,0,1-1.134-2.171V30.022c0-.835.507-1.216,1.134-.858L199.532,40.69a2.7,2.7,0,0,1,1.134,2.163V65.486C200.665,66.307,200.158,66.709,199.532,66.344Z" transform="translate(-165.828 -7.376)" fill="#e9eaf2"/>
        <path id="Path_412" data-name="Path 412" d="M236.591,87.754,216.614,76.221a2.73,2.73,0,0,1-1.134-2.171V51.432c0-.835.507-1.216,1.134-.858L236.569,62.1a2.7,2.7,0,0,1,1.156,2.186V86.9C237.725,87.731,237.218,88.157,236.591,87.754Z" transform="translate(-175.227 -12.814)" fill="#e9eaf2"/>
        <path id="Path_413" data-name="Path 413" d="M272.806,108.643,252.814,97.117a2.7,2.7,0,0,1-1.134-2.163V72.321c0-.836.507-1.223,1.134-.858l19.992,11.555a2.7,2.7,0,0,1,1.134,2.163v22.6C273.9,108.62,273.4,109,272.806,108.643Z" transform="translate(-184.422 -18.12)" fill="#e9eaf2"/>
        <path id="Path_414" data-name="Path 414" d="M199.532,109.164,179.614,97.646a2.73,2.73,0,0,1-1.134-2.171V72.842c0-.835.507-1.216,1.134-.858L199.532,83.5a2.73,2.73,0,0,1,1.134,2.171v22.633C200.665,109.141,200.158,109.529,199.532,109.164Z" transform="translate(-165.828 -18.253)" fill="#e9eaf2"/>
        <path id="Path_415" data-name="Path 415" d="M236.591,130.574l-19.977-11.518a2.73,2.73,0,0,1-1.134-2.171V94.252c0-.836.507-1.216,1.134-.858l19.955,11.518a2.73,2.73,0,0,1,1.134,2.171v22.633C237.725,130.551,237.218,130.939,236.591,130.574Z" transform="translate(-175.227 -23.692)" fill="#e9eaf2"/>
        <path id="Path_416" data-name="Path 416" d="M240.249,128.563l-19.955-11.525a2.7,2.7,0,0,1-1.134-2.163V92.241c0-.835.507-1.223,1.134-.858L240.249,102.9a2.73,2.73,0,0,1,1.134,2.171V127.7C241.42,128.54,240.875,128.921,240.249,128.563Z" transform="translate(-176.162 -23.18)" fill="#8c50ff"/>
        <path id="Path_417" data-name="Path 417" d="M272.806,151.455l-19.992-11.518a2.7,2.7,0,0,1-1.134-2.163V115.133c0-.828.507-1.216,1.134-.85L272.806,125.8a2.7,2.7,0,0,1,1.134,2.163V150.59C273.9,151.433,273.4,151.821,272.806,151.455Z" transform="translate(-184.422 -28.997)" fill="#e9eaf2"/>
        <path id="Path_418" data-name="Path 418" d="M199.532,152.885l-19.918-11.518a2.7,2.7,0,0,1-1.134-2.163V116.563c0-.828.507-1.216,1.134-.85l19.918,11.518a2.7,2.7,0,0,1,1.134,2.163v22.641C200.665,152.863,200.158,153.251,199.532,152.885Z" transform="translate(-165.828 -29.36)" fill="#e9eaf2"/>
        <path id="Path_419" data-name="Path 419" d="M254.212,214.839l-74.6-43.065a2.73,2.73,0,0,1-1.134-2.171v-5.222c0-.836.507-1.223,1.134-.858l74.6,43.073a2.7,2.7,0,0,1,1.134,2.163v5.222C255.309,214.817,254.8,215.2,254.212,214.839Z" transform="translate(-165.828 -41.505)" fill="#e9eaf2"/>
        <path id="Path_420" data-name="Path 420" d="M235.119,221.214l-55.106-31.786a2.7,2.7,0,0,1-1.134-2.163v-2.6c0-.836.507-1.223,1.134-.858l55.106,31.809a2.73,2.73,0,0,1,1.134,2.171v2.589C236.253,221.214,235.746,221.6,235.119,221.214Z" transform="translate(-165.93 -46.656)" fill="#e9eaf2"/>
        <path id="Path_421" data-name="Path 421" d="M235.119,234.41l-55.106-31.816a2.7,2.7,0,0,1-1.134-2.163v-2.589c0-.835.507-1.216,1.134-.858l55.106,31.809a2.73,2.73,0,0,1,1.134,2.171v2.589C236.253,234.388,235.746,234.768,235.119,234.41Z" transform="translate(-165.93 -50.005)" fill="#e9eaf2"/>
        <path id="Path_422" data-name="Path 422" d="M224.721,241.572l-44.707-25.818a2.7,2.7,0,0,1-1.134-2.163V211c0-.835.507-1.216,1.134-.858l44.707,25.811a2.73,2.73,0,0,1,1.134,2.171v2.589C225.854,241.55,225.347,241.93,224.721,241.572Z" transform="translate(-165.93 -53.348)" fill="#8c50ff"/>
        <path id="Path_423" data-name="Path 423" d="M407.551,303.982l-107.7-62.155a2.7,2.7,0,0,1-1.134-2.163v-5.222c0-.835.507-1.216,1.134-.858l107.7,62.192a2.7,2.7,0,0,1,1.134,2.163v5.222C408.685,303.982,408.178,304.37,407.551,303.982Z" transform="translate(-196.371 -59.302)" fill="#e9eaf2"/>
        <path id="Path_424" data-name="Path 424" d="M397.053,315.343l-96.739-55.859a2.7,2.7,0,0,1-1.134-2.163v-2.589c0-.835.507-1.216,1.134-.858l96.739,55.852a2.73,2.73,0,0,1,1.134,2.171v2.589C398.187,315.321,397.679,315.7,397.053,315.343Z" transform="translate(-196.488 -64.457)" fill="#e9eaf2"/>
        <path id="Path_425" data-name="Path 425" d="M397.053,328.5l-96.739-55.852a2.73,2.73,0,0,1-1.134-2.171v-2.589c0-.835.507-1.216,1.134-.858l96.739,55.889a2.7,2.7,0,0,1,1.134,2.163v2.589C398.187,328.481,397.679,328.891,397.053,328.5Z" transform="translate(-196.488 -67.799)" fill="#e9eaf2"/>
        <path id="Path_426" data-name="Path 426" d="M379.119,331.306l-78.805-45.5a2.73,2.73,0,0,1-1.134-2.171v-2.589c0-.835.507-1.216,1.134-.858l78.805,45.5a2.723,2.723,0,0,1,1.134,2.163v2.589C380.253,331.284,379.738,331.664,379.119,331.306Z" transform="translate(-196.488 -71.14)" fill="#8c50ff"/>
        <path id="Path_427" data-name="Path 427" d="M236.591,174.3l-19.977-11.518a2.7,2.7,0,0,1-1.134-2.163V137.973c0-.828.507-1.216,1.134-.85l19.955,11.518A2.7,2.7,0,0,1,237.7,150.8v22.641C237.725,174.3,237.218,174.661,236.591,174.3Z" transform="translate(-175.227 -34.799)" fill="#e9eaf2"/>
        <path id="Path_428" data-name="Path 428" d="M272.806,195.183l-19.992-11.525a2.7,2.7,0,0,1-1.134-2.163V158.861c0-.835.507-1.223,1.134-.858l19.992,11.518a2.73,2.73,0,0,1,1.134,2.171v22.633C273.9,195.16,273.4,195.541,272.806,195.183Z" transform="translate(-184.422 -40.103)" fill="#e9eaf2"/>
        <path id="Path_429" data-name="Path 429" d="M407.551,268.663l-107.7-62.215a2.7,2.7,0,0,1-1.134-2.163V168.821c0-.836.507-1.223,1.134-.858l107.7,62.177a2.73,2.73,0,0,1,1.134,2.171v35.464C408.685,268.611,408.178,268.991,407.551,268.663Z" transform="translate(-196.371 -42.633)" fill="#e9eaf2"/>
        <path id="Path_430" data-name="Path 430" d="M314.351,148.038c-9.146-5.282-16.591-18.165-16.591-28.728s7.46-14.852,16.591-9.578,16.583,18.172,16.583,28.728S323.489,153.32,314.351,148.038Zm0-32.771c-6.5-3.73-11.794-.694-11.794,6.811s5.289,16.673,11.794,20.425,11.794.7,11.794-6.811-5.3-16.635-11.794-20.425Z" transform="translate(-196.128 -27.303)" fill="#e9eaf2"/>
        <path id="Path_431" data-name="Path 431" d="M314.351,148.038c-9.146-5.282-16.591-18.165-16.591-28.728s7.46-14.852,16.591-9.578v5.535c-6.5-3.73-11.794-.694-11.794,6.811s5.289,16.673,11.794,20.425,11.794.7,11.794-6.811l4.789,2.768C330.926,149.023,323.489,153.32,314.351,148.038Z" transform="translate(-196.128 -27.303)" fill="#8c50ff"/>
        <path id="Path_432" data-name="Path 432" d="M366.213,178c-9.146-5.282-16.583-18.172-16.583-28.728s7.46-14.86,16.583-9.578S382.8,157.856,382.8,168.419,375.359,183.279,366.213,178Zm0-32.771c-6.5-3.73-11.794-.7-11.794,6.811s5.289,16.665,11.794,20.425,11.794.7,11.794-6.811S372.718,148.979,366.213,145.226Z" transform="translate(-209.304 -34.913)" fill="#e9eaf2"/>
        <path id="Path_433" data-name="Path 433" d="M366.213,178c-9.146-5.282-16.583-18.172-16.583-28.728s7.46-14.86,16.583-9.578v5.535c-6.5-3.73-11.794-.7-11.794,6.811s5.289,16.665,11.794,20.425a9.741,9.741,0,0,0,6.714,1.492l2.738,6.125C372.882,180.668,369.615,179.959,366.213,178Z" transform="translate(-209.304 -34.913)" fill="#8c50ff"/>
        <path id="Path_434" data-name="Path 434" d="M418.083,207.937c-9.146-5.282-16.583-18.172-16.583-28.728s7.46-14.86,16.583-9.578S434.7,187.8,434.7,198.359,427.236,213.219,418.083,207.937Zm0-32.771c-6.5-3.73-11.794-.7-11.794,6.811s5.3,16.665,11.794,20.425,11.794.7,11.794-6.811S424.588,178.919,418.083,175.166Z" transform="translate(-222.48 -42.518)" fill="#e9eaf2"/>
        <path id="Path_435" data-name="Path 435" d="M403.648,189.892a30.585,30.585,0,0,1-2.148-10.682c0-10.563,7.46-14.86,16.583-9.578v5.535c-6.5-3.73-11.794-.7-11.794,6.811a21.633,21.633,0,0,0,1.552,7.587Z" transform="translate(-222.48 -42.517)" fill="#8c50ff"/>
      </g>
      <ellipse id="Ellipse_15" data-name="Ellipse 15" cx="16.844" cy="9.728" rx="16.844" ry="9.728" transform="translate(236.483 338.435)" fill="#d6d8e5" opacity="0.4"/>
      <ellipse id="Ellipse_16" data-name="Ellipse 16" cx="16.844" cy="9.728" rx="16.844" ry="9.728" transform="translate(58.41 342.269)" fill="#d6d8e5" opacity="0.4"/>
      <ellipse id="Ellipse_17" data-name="Ellipse 17" cx="16.844" cy="9.728" rx="16.844" ry="9.728" transform="translate(0 254.027)" fill="#d6d8e5" opacity="0.4"/>
      <g id="Men_14" transform="translate(230.821 262.055)">
        <path id="Path_436" data-name="Path 436" d="M347.954,463.6c-1.1.888-2.715.075-2.8.157a47.151,47.151,0,0,1-4.043,3.364c-.679.537-1.746,1.261-1.552,2.29.343,1.85,3.3,1.283,4.416.746A34.145,34.145,0,0,0,347.059,468c.746-.47,1.492-.709,1.611-1.664A6.44,6.44,0,0,0,347.954,463.6Z" transform="translate(-317.071 -379.82)" fill="#38226d"/>
        <path id="Path_437" data-name="Path 437" d="M348.669,466.72c-.149.91-.88,1.164-1.626,1.626-1.074.664-2.014,1.626-3.133,2.186s-3.6,1.044-4.319-.276c.4,1.783,3.3,1.223,4.4.664s2.022-1.492,3.081-2.156c.746-.47,1.492-.709,1.611-1.664a2.408,2.408,0,0,0-.015-.38Z" transform="translate(-317.084 -380.613)" fill="#9c73ff"/>
        <path id="Path_438" data-name="Path 438" d="M335.25,458.858c-1.1.9-2.984-.082-3.1,0a40.325,40.325,0,0,1-3.611,3.26c-.679.537-1.746,1.261-1.552,2.29.343,1.843,3.3,1.276,4.416.746A32.707,32.707,0,0,0,334.489,463c.746-.47,1.492-.746,1.611-1.664A5.056,5.056,0,0,0,335.25,458.858Z" transform="translate(-313.878 -378.615)" fill="#38226d"/>
        <path id="Path_439" data-name="Path 439" d="M336.071,461.8c-.119.9-.865,1.164-1.611,1.641-1.074.664-2.022,1.626-3.133,2.193s-3.6,1.037-4.327-.284c.4,1.783,3.3,1.223,4.4.664s2.029-1.492,3.081-2.156c.746-.47,1.492-.746,1.611-1.656a1.425,1.425,0,0,0-.022-.4Z" transform="translate(-313.886 -379.363)" fill="#9c73ff"/>
        <path id="_Контур_" data-name="&lt;Контур&gt;" d="M345.616,408.061c-.052,1.656-.567,8.847-.8,12.682s-.284,8.474-.284,8.474.656,2.775,1.082,6.035,0,13.555,0,13.555a2.589,2.589,0,0,1-2.8,0s-1.753-8.206-2.566-11.936-.947-5.856-1.373-8.154c-.507-2.783-1.611-15.77-1.611-15.77h-.44l-1.171,14.659a16.16,16.16,0,0,1,.746,3.327c.321,2.395-.336,14.4-.336,14.4a2.9,2.9,0,0,1-3.029-.127S330.1,429.3,330.1,426.883c0-1.6.276-22.723.276-22.723Z" transform="translate(-314.673 -364.722)" fill="#8c50ff"/>
        <path id="_Контур_2" data-name="&lt;Контур&gt;" d="M342.854,366.47s-.186,3.611-.1,3.931,1.656,1.38,2.119,1.753-2.5,3.3-3.939,3.961-5.968-1.082-6.072-3.32.746-4.118,1.492-4.215S342.854,366.47,342.854,366.47Z" transform="translate(-315.879 -355.148)" fill="#ffcea9"/>
        <path id="Path_440" data-name="Path 440" d="M327.542,373.961c-.216-1.589.835-3.1-.179-4.371-3.566,3.491-3.118,12.741-3.924,18.65-2.648,2.768-7.967,5.49-9.466,6.169-.276.119-.507.254-.455.545a6.6,6.6,0,0,0,1.238,2.708c3.521-1.492,6.057-2.387,10.444-6.565a9.691,9.691,0,0,0,1.119-1.492C327.587,385.875,327.9,376.714,327.542,373.961Z" transform="translate(-310.459 -355.94)" fill="#ffcea9"/>
        <path id="_Контур_3" data-name="&lt;Контур&gt;" d="M342.05,371.486s-2.618,3.909-6.281,4.274c-1.149-1.134-1.253-5.177.343-6.475,0,0-1.492-1.179-2.477-.955a5.17,5.17,0,0,0-2.238,2.887,23.521,23.521,0,0,0-1.291,8.355c.06,3.834,0,15.546,0,15.546s.515,2.477,3.827,4.319,5.759,2.022,8,1.492c1.85-.433,3.379-1.089,4.021-2.432-.164-2.686-1.365-9.7-.918-13.07s1.164-5.9,1.343-8.631-.358-2.678-1.723-3.648A21.307,21.307,0,0,0,342.05,371.486Z" transform="translate(-314.673 -355.613)" fill="#f4f4f4"/>
        <path id="_Контур_4" data-name="&lt;Контур&gt;" d="M334.538,357.624h0c.433-2.8,2.454-4.931,5.341-4.767a5.572,5.572,0,0,1,5.259,5.878A5.506,5.506,0,0,1,342.714,363a5.967,5.967,0,0,1-.448,1.231c-1.022,1.194-4.118,1.932-5.006,1.805a2.648,2.648,0,0,1-2.305-1.887A12.606,12.606,0,0,1,334.538,357.624Z" transform="translate(-315.74 -351.687)" fill="#ffcea9"/>
        <path id="Path_441" data-name="Path 441" d="M342.855,362.607h0l-.269-2.439s2-5.177-2.723-4.185c-3.118.656-3.9.94-4.849-1.149s2.395-3.976,6.371-3.454a5.49,5.49,0,0,1,4.916,5.572C346.2,358.489,345.787,361.607,342.855,362.607Z" transform="translate(-315.88 -351.292)" fill="#3a2c6d"/>
        <path id="Path_442" data-name="Path 442" d="M348.033,377.408c-1.365-.388-.321-.067-1.365-.388-3.566,3.491-3.126,9.481-3.931,15.4-1.969,3.252-9.273,7.661-9.273,7.661-.09.634.127.821.918,2.089a31.384,31.384,0,0,0,10.861-7c.179-.164.433-.209.507-.433C347,390.962,348.391,380.161,348.033,377.408Z" transform="translate(-315.523 -357.828)" fill="#ffcea9"/>
        <path id="Path_443" data-name="Path 443" d="M309.42,387.32l5.311,18.157,11.645,4.647-4.245-17.68Z" transform="translate(-309.42 -360.444)" fill="#f4f4f4"/>
        <path id="Path_444" data-name="Path 444" d="M333.035,407.706c-.172-.619-.619-.47-1.126-.313a2.9,2.9,0,0,1-1.723.149,5.221,5.221,0,0,1-1.238-.835,1.492,1.492,0,0,0-.746-.216,10.654,10.654,0,0,0,.269,1.074h-2.812a.425.425,0,0,0-.4.7,1.2,1.2,0,0,1-.172,0c-.522-.119-.746.686-.224.806a4.174,4.174,0,0,0,.425.06c-.343.134-.425.7,0,.746h.127a.366.366,0,0,0,.194,0h.075a.462.462,0,0,0,.388.537c1.246.164,3.081.664,4.207-.366a7.213,7.213,0,0,0,2.238-.612C333.221,409.146,333.244,408.444,333.035,407.706Z" transform="translate(-313.266 -365.313)" fill="#ffcea9"/>
        <path id="Path_445" data-name="Path 445" d="M317.173,405.319h-.179a.433.433,0,0,0-.246-.746c-.261,0-2.887-.545-2.887-.545l-.321-1.082c0-.06-.455.216-.47.224a1.775,1.775,0,0,0-.791,1.313,2.79,2.79,0,0,0,.746,2.029,2.611,2.611,0,0,0,1.783.746,4.333,4.333,0,0,1,.9.06.462.462,0,0,0,.492-.455h.082a.4.4,0,0,0,.186,0h.134a.4.4,0,0,0,.179-.746h.433C317.755,406.147,317.7,405.312,317.173,405.319Z" transform="translate(-310.145 -364.411)" fill="#ffcea9"/>
        <path id="Path_446" data-name="Path 446" d="M329.68,376.009a2.827,2.827,0,0,1-1.91-.85c.1-1.343,1.82-6.438,5.274-6.818a6.423,6.423,0,0,0-2.156,2.611,33.781,33.781,0,0,0-1.208,5.058Z" transform="translate(-314.081 -355.623)" fill="#ededed"/>
        <path id="Path_447" data-name="Path 447" d="M351.824,384.521s-3.439,1.186-5.863-.806c-.261-.455,1.4-6.3,1.4-6.3s1.447-2.984,3.73-1.805S351.824,384.521,351.824,384.521Z" transform="translate(-318.695 -357.398)" fill="#ededed"/>
      </g>
      <g id="Men_4" transform="translate(62.826 264.351)">
        <path id="Path_448" data-name="Path 448" d="M85.05,384.66s.477,7.139,1.41,8.168,4.1,1.731,4.1,1.731l2.447,4.021S90.772,385.8,90.294,385.5A41.244,41.244,0,0,0,85.05,384.66Z" transform="translate(-84.431 -362.063)" fill="#ffcea9"/>
        <path id="_Контур_5" data-name="&lt;Контур&gt;" d="M89.531,373.915a2.656,2.656,0,0,0-3.394,1.029c-.9,1.492-1.835,6.594-1.917,7.46a3.682,3.682,0,0,0,3.148,1.492Z" transform="translate(-84.22 -359.271)" fill="#ededed"/>
        <path id="Path_449" data-name="Path 449" d="M100.813,469.081a5.259,5.259,0,0,0,3.954-.477c.947,0,6.117-2.186,6.818-.328.619,1.626-1.619,3.133-2.812,3.424-2.611.634-4.543,1.932-5.595,2.156a2.66,2.66,0,0,1-2.41-.343C100.067,472.773,100.112,470.051,100.813,469.081Z" transform="translate(-88.296 -383.113)" fill="#38226d"/>
        <path id="Path_450" data-name="Path 450" d="M103.273,473.767c1.052-.216,2.984-1.492,5.595-2.156,1-.239,2.723-1.335,2.9-2.641.231,1.492-1.79,2.827-2.9,3.1-2.611.634-4.543,1.932-5.595,2.156a2.66,2.66,0,0,1-2.41-.343,1.432,1.432,0,0,1-.343-.627,3.126,3.126,0,0,0,2.753.515Z" transform="translate(-88.361 -383.48)" fill="#9c73ff"/>
        <path id="Path_451" data-name="Path 451" d="M90.054,465.713a5.222,5.222,0,0,0,3.954-.477c.955,0,6.117-2.178,6.826-.321.612,1.626-1.626,3.133-2.82,3.424-2.611.627-4.543,1.932-5.587,2.148a2.657,2.657,0,0,1-2.417-.336C89.264,469.413,89.331,466.69,90.054,465.713Z" transform="translate(-85.556 -382.259)" fill="#38226d"/>
        <path id="Path_452" data-name="Path 452" d="M92.49,470.364c1.044-.224,2.984-1.492,5.587-2.156,1-.239,2.73-1.335,2.9-2.648.231,1.492-1.79,2.827-2.9,3.1-2.611.627-4.543,1.932-5.587,2.148a2.657,2.657,0,0,1-2.417-.336,1.559,1.559,0,0,1-.343-.627A3.141,3.141,0,0,0,92.49,470.364Z" transform="translate(-85.62 -382.614)" fill="#9c73ff"/>
        <path id="_Контур_6" data-name="&lt;Контур&gt;" d="M89.327,436.8a31.219,31.219,0,0,1,1.194-5.655s-.358-4.886-.537-9.519c-.2-5.222-2.022-9.877-.589-14.069l15.979,3.558s-.746,20.992-.992,23.528a46.811,46.811,0,0,1-.746,5.886c-.746,4.066-1.544,13.167-1.544,13.167-1.716,1-4.23.179-4.23.179s0-11.391.1-14.323c.134-3.581.246-3.3.246-3.3l-.537-8.914-.351-4.431s-.448,3.252-.746,6.154c-.254,2.536-.865,4.826-1.552,9.549-.589,4.088-1.2,12.436-1.2,12.436a5.834,5.834,0,0,1-4.028.306S88.865,440.353,89.327,436.8Z" transform="translate(-85.396 -367.88)" fill="#8c50ff"/>
        <path id="_Контур_7" data-name="&lt;Контур&gt;" d="M92.264,369.409c1.231.06,2.148.38,2.305,0a16.323,16.323,0,0,0,.283-1.932c-.142-.358-.269-.746-.269-.746-1.552-.947-2.037-2.626-2.238-4.58-.343-3.335,1.492-6.251,4.789-6.6,3.141-.328,5.446,1.88,6.065,4.9.328,1.492.992,4.319.1,6.773-.5,1.38-1.141,2.469-1.783,2.678a13.432,13.432,0,0,1-1.857-.164h0s-.164.925-.276,1.492-.075.9,1.112,1.634-1.79,2.238-3.73,2.081-4.133-1.32-4.73-2.574C91.353,371.021,91.413,369.365,92.264,369.409Z" transform="translate(-86.087 -354.66)" fill="#ffcea9"/>
        <path id="_Контур_8" data-name="&lt;Контур&gt;" d="M92.667,374.29c-.343.85.53,1.895,2.85,2.618s2.521-.209,2.521-.209a45.893,45.893,0,0,1,4.476,2.327c1.388.97,2.007,3.79,2.193,8.542.216,5.5.239,13.659.052,15.069a8.421,8.421,0,0,1-5.968,2.32c-3.372-.276-8.952-3.223-10.287-5.5,0-4.819.6-5.6-.179-8.385-1.79-6.363-2.73-8.952-1.857-13.189.746-3.484,1.716-3.916,3.1-3.887A29.094,29.094,0,0,1,92.667,374.29Z" transform="translate(-84.707 -359.355)" fill="#f4f4f4"/>
        <path id="Path_453" data-name="Path 453" d="M106.664,410.9,105,391.745l3.573-1.895,1.395,1.171-.492,17.2h0v.477h0v.612s.075,1.447-2.656,3.178c0,0-.045-.455-.082-.88h0l-.067-.746Z" transform="translate(-89.499 -363.382)" fill="#ffcea9"/>
        <path id="_Контур_9" data-name="&lt;Контур&gt;" d="M105.863,379.15c1.843,0,2.984.94,3.469,3.782s.746,5.17.746,5.17a4.968,4.968,0,0,1-3.29,1.626c-2.238.246-2.879-.888-2.879-.888s-.239-2.947-.358-4.953S103.58,379.195,105.863,379.15Z" transform="translate(-89.123 -360.664)" fill="#ededed"/>
        <path id="Path_454" data-name="Path 454" d="M103.208,359.733s2.879-4.379-3.364-5.274c-4.476-.642-7.4,2.238-7.736,5.393a9.849,9.849,0,0,0,2.865,7.348,5.438,5.438,0,0,0,3.894-.47,21.938,21.938,0,0,0,.082-2.454S96.762,359.651,103.208,359.733Z" transform="translate(-86.214 -354.369)" fill="#3a2c6d"/>
      </g>
      <g id="Girl_9" transform="translate(6.231 174.972)">
        <path id="_Контур_10" data-name="&lt;Контур&gt;" d="M19.026,235.656c-.656-1.059-5.669-1.753-7.318,2.492-.627,1.611-.53,5.729-1.052,8.31s-1.753,4.051-2.193,6.147.276,5.617,5.334,6.236,8.952-1.156,10.13-2.768a7.016,7.016,0,0,0,0-6.87c-1.216-1.835-2.178-3.335-2.148-5.729Z" transform="translate(-8.353 -234.631)" fill="#3a2c6d"/>
        <path id="Path_455" data-name="Path 455" d="M29.762,259.344s1.186,8.4-1.052,14.368-1.626-1.529-1.626-1.529l.545-1.783s.448-6.848.261-8.527-.142-3.126-.261-3.26.44-.4.679-.433S29.762,259.344,29.762,259.344Z" transform="translate(-13.092 -240.556)" fill="#ffcea9"/>
        <path id="_Контур_11" data-name="&lt;Контур&gt;" d="M18.22,234.842s3.775-1.082,6.057.955a5.61,5.61,0,0,1,1.619,5.587c-.306,1.194-.918,2.82-1.865,2.909S18.22,234.842,18.22,234.842Z" transform="translate(-10.86 -234.555)" fill="#3a2c6d"/>
        <path id="_Контур_12" data-name="&lt;Контур&gt;" d="M15.618,248.74s.246,4.2.172,4.476-1.656.612-2.1.977,2.29,4.633,3.678,5.267,5.677-.985,5.968-3.118a4.879,4.879,0,0,0-1.805-4.028,8.51,8.51,0,0,0-1.186,0l-.127-2.044C18.386,249.68,15.618,248.74,15.618,248.74Z" transform="translate(-9.698 -238.158)" fill="#ffcea9"/>
        <path id="_Контур_13" data-name="&lt;Контур&gt;" d="M14.486,254.871c-1.179.186-2.529.813-2.715,1.492a13.994,13.994,0,0,0,.343,7.02c1.022,2.7,1.708,4.424,2.3,5.587,0,0,5.11,2.193,9.235-.358,0,0,.276-2.9.3-4.476,3.8-3.32.552-7.408-2.671-10.585a6.071,6.071,0,0,0-1.164,0s2.879,3.394.88,5.326C16.709,257.564,15.858,255.639,14.486,254.871Z" transform="translate(-9.147 -239.373)" fill="#f4f4f4"/>
        <path id="_Контур_14" data-name="&lt;Контур&gt;" d="M23.339,240.187h0c-.425-2.7-2.38-4.737-5.162-4.58a5.386,5.386,0,0,0-5.05,5.684,5.326,5.326,0,0,0,2.357,4.11,5.662,5.662,0,0,0,.425,1.179,7.978,7.978,0,0,0,4.476,1.887c.746,0,1.395-.686,2.1-1.85A9.274,9.274,0,0,0,23.339,240.187Z" transform="translate(-9.564 -234.82)" fill="#ffcea9"/>
        <path id="Path_456" data-name="Path 456" d="M17.153,235.634c-1.954.38-3.558.932-4.088,2.85-.366,1.32-.843,3.842-.388,4.9l.283.746,2.365,1.223s1.1-.925.746-3.618a1.917,1.917,0,0,1,.328-1.022,2.984,2.984,0,0,0,.328-.821,3.029,3.029,0,0,1,1.537-1.656,5.266,5.266,0,0,1,4.7.224,5.132,5.132,0,0,0-5.811-2.827Z" transform="translate(-9.404 -234.795)" fill="#3a2c6d"/>
        <path id="Path_457" data-name="Path 457" d="M13.781,349.83c.992.806,2.529.246,2.6.321a42.158,42.158,0,0,0,3.6,2.79c.619.485,1.581,1.134,1.41,2.066-.313,1.664-2.984,1.149-3.991.642s-1.828-1.358-2.775-1.947c-.679-.418-1.35-.642-1.492-1.492A5.624,5.624,0,0,1,13.781,349.83Z" transform="translate(-9.569 -263.837)" fill="#38226d"/>
        <path id="Path_458" data-name="Path 458" d="M13.2,352.52c.127.821.791,1.044,1.492,1.492.97.6,1.82,1.492,2.827,1.977s3.245.932,3.9-.254c-.358,1.6-2.984,1.1-3.976.6s-1.828-1.358-2.775-1.947c-.679-.418-1.35-.642-1.492-1.492a1.119,1.119,0,0,1,.022-.373Z" transform="translate(-9.577 -264.521)" fill="#9c73ff"/>
        <path id="Path_459" data-name="Path 459" d="M23.079,348c.91.746,2.238.321,2.342.388a36.61,36.61,0,0,0,3.312,2.529c.559.44,1.44,1.037,1.283,1.887-.283,1.492-2.73,1.059-3.648.589s-1.678-1.238-2.551-1.783c-.619-.38-1.231-.582-1.328-1.373A5.334,5.334,0,0,1,23.079,348Z" transform="translate(-11.944 -263.372)" fill="#38226d"/>
        <path id="Path_460" data-name="Path 460" d="M22.5,350.55c.119.746.746.962,1.335,1.343.888.552,1.671,1.343,2.589,1.813s2.984.858,3.573-.231c-.321,1.492-2.723,1.007-3.633.545s-1.678-1.238-2.551-1.783c-.619-.38-1.231-.582-1.328-1.373A1.186,1.186,0,0,1,22.5,350.55Z" transform="translate(-11.943 -264.02)" fill="#9c73ff"/>
        <path id="Path_461" data-name="Path 461" d="M25.077,283.462c-.44-3.409-1.693-8.362-1.693-8.362a10.108,10.108,0,0,1-3.782.933,30.735,30.735,0,0,1-5.722-.552,35.8,35.8,0,0,1-2.014,3.118,13.424,13.424,0,0,0-2.439,9.578c.306,3.417,2.238,17.9,2.238,17.9a27.057,27.057,0,0,0-1.171,7.519,61.916,61.916,0,0,0,1.194,9.011l1.141,8.206s1.492,1.1,2.6.321l-.134-8.057c.127-1.969.321-4.879.448-6.714.209-3.021.746-7.825.9-9.019s.545-3.3.746-5.647,1.067-14.286,1.067-14.286l.127,2.238s.112,3.633.634,8.109.709,6.46.709,6.46a9.7,9.7,0,0,0-1.067,2.88c-.09.962-1.2,8.616-.537,12.51l1.358,9.9a2.6,2.6,0,0,0,2.342.306l.8-9.974c.537-3.8,1.671-11.846,1.843-12.891a42.968,42.968,0,0,0,.679-6.386,138.006,138.006,0,0,0-.269-17.105Z" transform="translate(-8.608 -244.854)" fill="#ffcea9"/>
        <path id="Path_462" data-name="Path 462" d="M13.748,274.045l-2.939,5.9s-4.476,6.557.164,23.416l-.873,5.222s8.788,5.64,14.673,0c0,0,2.037-15.576.955-22.76a83.116,83.116,0,0,0-2.738-12.2s-1.44,1.589-8.855.537" transform="translate(-8.484 -244.478)" fill="#8c50ff"/>
        <path id="_Контур_15" data-name="&lt;Контур&gt;" d="M32.63,274.412a17.227,17.227,0,0,0-2.238.239,7.3,7.3,0,0,1-2.178.336c-.806,0-3.051-1.119-4.976-2.469a22.962,22.962,0,0,1-5.341-5.662,50.086,50.086,0,0,1-3.946-7.311c-.627-1.805-.612-.574-1.678-.6-1.261,0-1.932.433-.992,2.887a27.347,27.347,0,0,0,3.894,7.079,23.506,23.506,0,0,0,5.617,5.6,29.191,29.191,0,0,0,6.169,3.3c.627.254,1.029.6,2.163,1.231a8.116,8.116,0,0,0,3.73,1.067c1.089,0,1.492-.209,1.567-.433s-.1-.47-.6-.515a6.557,6.557,0,0,1-2.32-.462s1.082.157,1.738.186a6.5,6.5,0,0,0,1.753-.134c.552-.134.858-.91.358-.97s-.91,0-1.88-.037a6.556,6.556,0,0,1-1.492-.276,12.219,12.219,0,0,0,1.947-.142,2.76,2.76,0,0,0,1.432-.574c.216-.179.254-.679-.38-.671a9.7,9.7,0,0,1-2.372.119c-.783-.112-1.328-.3-1.208-.4s.582,0,1.238-.239,1.1-.813.955-1.149S33.339,274.285,32.63,274.412Z" transform="translate(-8.985 -240.652)" fill="#ffcea9"/>
        <path id="Path_463" data-name="Path 463" d="M11.689,263.675s2.879.149,4.513-1.649l-1.775-3.73s-.813-2.051-2.73-1.544S9.749,259.983,11.689,263.675Z" transform="translate(-8.834 -240.173)" fill="#ededed"/>
        <path id="Path_464" data-name="Path 464" d="M24.61,253.537s2.335-.746,4.812,4.476l-.925.559A37.812,37.812,0,0,0,24.61,253.537Z" transform="translate(-12.483 -239.368)" fill="#ededed"/>
      </g>
      <path id="Path_465" data-name="Path 465" d="M60.72,100.711,19.438,76.839l-.157-.09h0c-1.164-.619-2.738-.507-4.476.492A14.268,14.268,0,0,0,8.36,88.432c0,2.126.783,3.6,2.029,4.23l41.842,24.147Z" transform="translate(-2.124 -19.401)" fill="#2ab7ca"/>
      <ellipse id="Ellipse_18" data-name="Ellipse 18" cx="9.116" cy="5.259" rx="9.116" ry="5.259" transform="translate(45.284 94.635) rotate(-60)" fill="#259ca5"/>
      <path id="Path_466" data-name="Path 466" d="M90.317,136.546,68.81,124.133V115.42l21.507,12.421Z" transform="translate(-17.479 -29.321)" fill="#d6d8e5"/>
      <path id="Path_467" data-name="Path 467" d="M90.317,126.888,68.81,114.475l4.953-2.865L95.27,124.031Z" transform="translate(-17.479 -28.353)" fill="#c4c7d6"/>
      <ellipse id="Ellipse_19" data-name="Ellipse 19" cx="27.064" cy="46.877" rx="27.064" ry="46.877" transform="translate(55.155 87.833) rotate(-30)" fill="url(#linear-gradient)"/>
      <path id="Path_468" data-name="Path 468" d="M129.123,179.307C106.93,166.491,88.84,135.212,88.84,109.58s18.06-36.053,40.283-23.237,40.283,44.095,40.283,69.719S151.323,192.116,129.123,179.307Zm0-78.283c-15.188-8.773-27.542-1.641-27.542,15.9s12.353,38.94,27.542,47.743,27.542,1.634,27.542-15.9S144.311,109.789,129.123,101.024Z" transform="translate(-22.567 -20.542)" fill="#259ca5"/>
      <path id="Path_469" data-name="Path 469" d="M123.063,182.807c-22.2-12.816-40.283-44.095-40.283-69.727s18.053-36.053,40.283-23.237,40.283,44.095,40.283,69.719S145.256,195.623,123.063,182.807Zm0-78.283c-15.188-8.773-27.542-1.641-27.542,15.9s12.353,38.94,27.542,47.743,27.542,1.634,27.542-15.9S138.251,113.289,123.063,104.524Z" transform="translate(-21.028 -21.431)" fill="#2ab7ca"/>
    </g>
  </g>
</svg>
