<svg xmlns="http://www.w3.org/2000/svg" width="82" height="81" viewBox="0 0 82 81">
  <g id="Group_4" data-name="Group 4" transform="translate(-1333 -923)">
    <ellipse id="Ellipse_2" data-name="Ellipse 2" cx="41" cy="40.5" rx="41" ry="40.5" transform="translate(1333 923)" fill="#4b2b89"/>
    <path id="instagram" d="M50.3,38.813A11.491,11.491,0,0,1,38.813,50.3H16.731A11.491,11.491,0,0,1,5.24,38.813V16.729A11.491,11.491,0,0,1,16.731,5.239H38.813A11.491,11.491,0,0,1,50.3,16.729Zm5.24-22.084A16.731,16.731,0,0,0,38.812,0H16.733A16.73,16.73,0,0,0,0,16.729V38.813A16.732,16.732,0,0,0,16.733,55.544H38.812A16.733,16.733,0,0,0,55.544,38.812ZM27.866,36.916a8.786,8.786,0,1,1,8.786-8.786,8.8,8.8,0,0,1-8.786,8.786Zm0-22.5A13.716,13.716,0,1,0,41.584,28.13,13.732,13.732,0,0,0,27.866,14.414Zm14.518-4.188a3.266,3.266,0,1,0,3.266,3.266,3.266,3.266,0,0,0-3.266-3.266Z" transform="translate(1346.231 935.692)" fill="#c81265"/>
  </g>
</svg>
