<svg xmlns="http://www.w3.org/2000/svg" width="330" height="120.479" viewBox="0 0 330 120.479">
  <g id="logo" transform="translate(-140 -41.521)">
    <g id="logo-2" data-name="logo" transform="translate(140 42)" fill="none">
      <path d="M0,0H65.156V120H0Z" stroke="none"/>
      <path d="M 4.000007629394531 3.999992370605469 L 4.000007629394531 115.9999923706055 L 61.15604400634766 115.9999923706055 L 61.15604400634766 3.999992370605469 L 4.000007629394531 3.999992370605469 M 65.15604400634766 -0.47900390625 L 65.15604400634766 -7.62939453125e-06 C 65.15604400634766 -0.3594131469726562 65.15604400634766 -0.47900390625 65.15604400634766 -0.47900390625 Z M 7.62939453125e-06 -7.62939453125e-06 L 65.15604400634766 -7.62939453125e-06 C 65.15604400634766 1.453681945800781 65.15604400634766 6.828231811523438 65.15604400634766 24.05479431152344 C 65.15604400634766 54.05479431152344 65.15604400634766 119.9999923706055 65.15604400634766 119.9999923706055 L 7.62939453125e-06 119.9999923706055 L 7.62939453125e-06 -7.62939453125e-06 Z" stroke="none" fill="#6d1fc5"/>
    </g>
    <text id="grammer" transform="translate(161 118)" fill="#6d1fc5" font-size="60" font-family="Verdana-Bold, Verdana" font-weight="700"><tspan x="0" y="0">grammer</tspan></text>
  </g>
</svg>
