<svg xmlns="http://www.w3.org/2000/svg" width="82" height="81" viewBox="0 0 82 81">
  <g id="Group_5" data-name="Group 5" transform="translate(-1465 -923)">
    <ellipse id="Ellipse_3" data-name="Ellipse 3" cx="41" cy="40.5" rx="41" ry="40.5" transform="translate(1465 923)" fill="#4b2b89"/>
    <path id="twitter" d="M56.547,8.606a23.363,23.363,0,0,1-5.733,1.637c.922-.156,2.285-1.827,2.829-2.5a10.548,10.548,0,0,0,1.909-3.477c.05-.1.089-.223-.011-.3a.333.333,0,0,0-.305.027A29.3,29.3,0,0,1,48.427,6.6a.458.458,0,0,1-.47-.124,5.5,5.5,0,0,0-.594-.61,12.053,12.053,0,0,0-3.3-2.022A11.489,11.489,0,0,0,39,3.024a12.108,12.108,0,0,0-4.8,1.357,12.384,12.384,0,0,0-3.87,3.161,11.889,11.889,0,0,0-2.313,4.633,12.608,12.608,0,0,0-.124,4.89c.039.273.014.31-.232.273C18.3,15.949,10.552,12.6,4.257,5.431c-.273-.312-.422-.312-.646.023C.857,9.583,2.192,16.215,5.633,19.475c.459.435.929.869,1.439,1.265a11.914,11.914,0,0,1-4.516-1.265c-.273-.172-.41-.073-.435.236A7.077,7.077,0,0,0,2.2,21.052a12,12,0,0,0,7.4,9.568,6.989,6.989,0,0,0,1.5.458,13.375,13.375,0,0,1-4.429.138c-.323-.064-.447.1-.323.408,1.948,5.312,6.155,6.893,9.305,7.792.422.075.844.075,1.266.174-.025.037-.05.037-.074.074-1.047,1.593-4.669,2.779-6.355,3.37A22.784,22.784,0,0,1,.83,44.269c-.518-.076-.628-.071-.768,0-.142.089-.018.213.149.346.656.435,1.327.819,2.01,1.192a31.839,31.839,0,0,0,6.453,2.581c11.6,3.2,24.655.85,33.364-7.8,6.834-6.793,9.231-16.161,9.231-25.542,0-.365.433-.568.692-.763A22.43,22.43,0,0,0,56.48,9.56a1.374,1.374,0,0,0,.28-.9v-.05C56.76,8.457,56.778,8.5,56.547,8.606Z" transform="translate(1478 937.001)" fill="#c81265" fill-rule="evenodd"/>
  </g>
</svg>
